<svg xmlns="http://www.w3.org/2000/svg" xmlns:xlink="http://www.w3.org/1999/xlink" width="500" zoomAndPan="magnify" viewBox="0 0 375 374.999991" height="500" preserveAspectRatio="xMidYMid meet" version="1.0"><defs><clipPath id="id1"><path d="M 112.5 128 L 262.5 128 L 262.5 250.296875 L 112.5 250.296875 Z M 112.5 128 " clip-rule="nonzero"/></clipPath></defs><g clip-path="url(#id1)"><path fill="#0293d1" d="M 247.003906 158.703125 C 247.09375 160.027344 247.09375 161.351562 247.09375 162.683594 C 247.09375 203.367188 216.207031 250.285156 159.738281 250.285156 L 159.738281 250.261719 C 143.054688 250.289062 126.71875 245.5 112.675781 236.460938 C 115.097656 236.753906 117.539062 236.898438 119.984375 236.90625 C 133.808594 236.917969 147.238281 232.265625 158.113281 223.699219 C 144.976562 223.449219 133.457031 214.859375 129.429688 202.316406 C 134.03125 203.207031 138.773438 203.027344 143.289062 201.785156 C 128.964844 198.882812 118.660156 186.261719 118.660156 171.605469 C 118.660156 171.472656 118.660156 171.34375 118.660156 171.214844 C 122.929688 173.601562 127.707031 174.921875 132.597656 175.070312 C 119.105469 166.03125 114.949219 148.035156 123.097656 133.960938 C 138.683594 153.199219 161.683594 164.890625 186.371094 166.128906 C 183.894531 155.433594 187.277344 144.230469 195.253906 136.710938 C 207.621094 125.054688 227.070312 125.652344 238.695312 138.046875 C 245.570312 136.6875 252.160156 134.15625 258.191406 130.574219 C 255.898438 137.703125 251.105469 143.757812 244.695312 147.601562 C 250.78125 146.882812 256.726562 145.25 262.328125 142.753906 C 258.203125 148.949219 253.011719 154.34375 247.003906 158.703125 Z M 247.003906 158.703125 " fill-opacity="1" fill-rule="nonzero"/></g></svg>